<svg width="500" height="300" xmlns="http://www.w3.org/2000/svg">
<rect width="500" height="300" fill="#1a1a1a" rx="12"/>
<rect x="20" y="20" width="460" height="260" fill="#2d2d2d" stroke="#404040" stroke-width="1" rx="8"/>
<text x="35" y="45" font-family="Inter, -apple-system, sans-serif" font-size="14" font-weight="500" fill="#a0a0a0">Repo name</text>
<rect x="35" y="60" width="280" height="160" fill="none" stroke="#404040" stroke-width="1" rx="4"/>
<polyline points="35,190 49,163 64,136 79,109 93,142 108,115 123,88 138,131 152,164 167,137 182,110 197,83 211,116 226,89 241,132 256,105 270,138 285,111 300,84 315,57" fill="none" stroke="#10b981" stroke-width="2" opacity="0.8"/>
<polyline points="35,200 49,177 64,154 79,167 93,144 108,161 123,174 138,151 152,128 167,141 182,158 197,135 211,148 226,125 241,102 256,155 270,132 285,109 300,122 315,99" fill="none" stroke="#8b5cf6" stroke-width="2" opacity="0.8"/>
<polyline points="35,190 49,163 64,136 79,109 93,142 108,115 123,88 138,131 152,164 167,137 182,110 197,83 211,116 226,89 241,132 256,105 270,138 285,111 300,84 315,57" fill="none" stroke="#10b981" stroke-width="4" opacity="0.2"/>
<polyline points="35,200 49,177 64,154 79,167 93,144 108,161 123,174 138,151 152,128 167,141 182,158 197,135 211,148 226,125 241,102 256,155 270,132 285,109 300,122 315,99" fill="none" stroke="#8b5cf6" stroke-width="4" opacity="0.2"/>
<text x="340" y="50" font-family="Inter, -apple-system, sans-serif" font-size="12" font-weight="500" fill="#a0a0a0">Push : count</text>
<text x="340" y="65" font-family="Inter, -apple-system, sans-serif" font-size="12" font-weight="500" fill="#a0a0a0">Commit: count</text>
<circle cx="390" cy="140" r="35" fill="none" stroke="#404040" stroke-width="8"/>
<circle cx="390" cy="140" r="35" fill="none" stroke="#f59e0b" stroke-width="8" stroke-dasharray="201.6 628" stroke-dashoffset="0" transform="rotate(-90 390 140)"/>
<circle cx="390" cy="140" r="35" fill="none" stroke="#10b981" stroke-width="8" stroke-dasharray="806.4 628" stroke-dashoffset="-201.6" transform="rotate(-90 390 140)"/>
<circle cx="390" cy="140" r="20" fill="url(#modernGradient)"/>
<defs>
<radialGradient id="modernGradient" cx="50%" cy="50%" r="50%">
<stop offset="0%" style="stop-color:#8b5cf6;stop-opacity:0.8"/>
<stop offset="100%" style="stop-color:#2d2d2d;stop-opacity:1"/>
</radialGradient>
</defs>
<text x="390" y="135" font-family="Inter, -apple-system, sans-serif" font-size="14" font-weight="600" fill="#ffffff" text-anchor="middle">6</text>
<text x="390" y="150" font-family="Inter, -apple-system, sans-serif" font-size="14" font-weight="600" fill="#ffffff" text-anchor="middle">24</text>
</svg>